<?xml version="1.0" encoding="UTF-8"?>
<svg xmlns="http://www.w3.org/2000/svg" viewBox="0 0 172.26 153.66">
  <defs>
    <style>
      .cls-1 {
        fill: #f3c304;
      }

      .cls-1, .cls-2, .cls-3 {
        stroke: #000256;
        stroke-width: 2px;
      }

      .cls-1, .cls-2, .cls-3, .cls-4, .cls-5, .cls-6 {
        stroke-miterlimit: 10;
      }

      .cls-2 {
        fill: #8d00cf;
      }

      .cls-3 {
        fill: #276cff;
      }

      .cls-7 {
        mix-blend-mode: multiply;
      }

      .cls-4, .cls-5 {
        stroke: blue;
        stroke-width: .25px;
      }

      .cls-4, .cls-8 {
        fill: blue;
      }

      .cls-5, .cls-9 {
        fill: #cff;
      }

      .cls-6 {
        fill: none;
        stroke: #2897ff;
      }

      .cls-10, .cls-9, .cls-11, .cls-8 {
        stroke-width: 0px;
      }

      .cls-12 {
        isolation: isolate;
      }

      .cls-11 {
        fill: #fff;
      }
    </style>
  </defs>
  <g class="cls-12">
    <g id="Layer_2" data-name="Layer 2">
      <g id="Layer_1-2" data-name="Layer 1">
        <path class="cls-11" d="m171.12,93.31l-7.73-11.28c6.68-10.58-12.69-22.18-17.8-28.92.76-23.24-.51-24.43-23.69-23.69-39.3-39.32-29.42-39.15-68.63,0h-22.74c-.51-5.78-8.76-7.82-11.89-2.87,0,0-17.59,25.67-17.59,25.67-4.74,5.57,7.77,17.17,9.84,21.76-3.37,8.79,11.19,18.01,15.69,23.59-.7,26.26-.26,26.61,25.93,25.93,40.35,40.31,29.9,40.12,70.14,0h18.98c.51,5.78,8.76,7.83,11.89,2.87,0,0,17.59-25.67,17.59-25.67,1.51-2.21,1.52-5.18,0-7.39Z"/>
        <g>
          <rect class="cls-3" x="34.48" y="24.05" width="105.58" height="105.58" rx="6.28" ry="6.28" transform="translate(-28.77 84.22) rotate(-45)"/>
          <rect class="cls-6" x="40.38" y="29.61" width="93.79" height="93.79" rx="2.88" ry="2.88" transform="translate(-28.53 84.12) rotate(-45)"/>
          <path class="cls-1" d="m135.66,34.43H25.59c0-1.7.61-7.88-2.81-5.05.04.57-19.83,27.18-17.59,27.42,0,0,17.59,25.68,17.59,25.68,3.42,2.81,2.83-3.29,2.81-5.05h110.07c2.72,0,4.93-2.21,4.93-4.93v-33.14c0-2.72-2.21-4.93-4.93-4.93Z"/>
          <path class="cls-2" d="m36.52,118.5h110.07c0,1.7-.61,7.88,2.81,5.05-.04-.57,19.83-27.18,17.59-27.42,0,0-17.59-25.68-17.59-25.68-3.42-2.81-2.83,3.29-2.81,5.05H36.52c-2.72,0-4.93,2.21-4.93,4.93v33.14c0,2.72,2.21,4.93,4.93,4.93Z"/>
        </g>
        <g>
          <g>
            <path class="cls-8" d="m47.65,66.52c-1.39,0-3.03-.39-3.17-1.49l-1.83-6.29c-.08.32-.16.67-.24,1-.91,3.79-1.73,6.69-3.28,6.69-.08,0-.17,0-.25-.03-.04,0-.14,0-.26,0-.19,0-.41,0-.64.02-.28.01-.58.03-.88.03-.64,0-2.35,0-2.61-1.42l-.02-.08v-.09c-.02-.2-.61-2.03-1.17-3.81-2.67-8.38-3.42-11.29-3.07-12.18-.31-.8-.31-1.45,0-1.94.53-.84,1.78-.94,2.81-.94.32,0,.64.01.94.02h.4s.04,0,.11,0c1.57,0,2.29,2.74,3.08,6.32.08.39.17.79.26,1.16.09-.35.18-.72.27-1.06.93-3.76,1.71-6.42,3.21-6.42.08,0,.17,0,.25.03.04,0,.14,0,.25,0,.19,0,.39,0,.61-.02.26-.01.53-.03.8-.03.53,0,2.13,0,2.44,1.39l1.82,5.99c.07-.32.15-.65.22-.98.8-3.62,1.54-6.4,3.09-6.4.06,0,.11,0,.17.01h.35c.3-.02.63-.04.96-.04,1.03,0,2.27.11,2.8.95.32.5.32,1.15,0,1.95.35.89-.38,3.77-3.05,12.11-.57,1.79-1.16,3.63-1.19,3.92-.06,1.2-1.77,1.62-3.21,1.62h0Z"/>
            <path class="cls-10" d="m52.29,46.47c1.61,0,3.25.3,2.23,2.48,1.2.14-4.23,15.33-4.16,15.94-.04.75-1.38,1.13-2.71,1.13s-2.62-.36-2.68-1.09l-2.3-7.89c-.65.97-1.66,8.89-3.55,8.89-.05,0-.1,0-.15-.02-.1-.01-.23-.02-.36-.02-.42,0-.97.05-1.52.05-.99,0-1.96-.15-2.11-1.01.09-.55-5.38-15.9-4.17-15.98-1.02-2.18.62-2.48,2.23-2.48.47,0,.94.03,1.34.04.04,0,.08-.01.12-.01,1.92,0,2.63,7.54,3.33,8.57.65-.91,1.67-8.58,3.49-8.58.05,0,.09,0,.14.02.11.01.23.02.36.02.41,0,.91-.05,1.41-.05.9,0,1.77.15,1.96,1l2.3,7.59c.65-.96,1.43-8.57,3.31-8.57.04,0,.09,0,.14.01.4-.01.87-.04,1.34-.04m0-1c-.33,0-.67.01-.97.02h-.31c-.06,0-.13,0-.19,0h0c-1.89,0-2.69,2.87-3.38,5.91l-1.27-4.18c-.28-1.16-1.26-1.74-2.92-1.74-.28,0-.56.01-.83.03-.21.01-.41.02-.59.02-.08,0-.15,0-.21,0-.1-.02-.19-.03-.29-.03h0c-1.72,0-2.54,2.27-3.45,5.82-.67-2.99-1.47-5.82-3.37-5.82-.06,0-.11,0-.17,0h-.33c-.31-.02-.64-.03-.97-.03-1.15,0-2.56.13-3.23,1.18-.38.6-.42,1.34-.11,2.22-.26,1.09.36,3.66,3.12,12.32.51,1.59,1.03,3.24,1.15,3.72v.02s.03.17.03.17c.22,1.21,1.26,1.83,3.1,1.83.31,0,.61-.01.9-.03.22-.01.43-.02.62-.02.08,0,.15,0,.21,0,.1.02.2.03.3.03,1.79,0,2.65-2.55,3.57-6.25l1.3,4.45c.17,1.17,1.56,1.89,3.66,1.89,2.22,0,3.64-.79,3.71-2.07h0c.08-.41.63-2.14,1.16-3.81,2.77-8.66,3.37-11.17,3.1-12.26.31-.88.27-1.63-.11-2.22-.66-1.04-2.07-1.18-3.23-1.18h0Z"/>
          </g>
          <g>
            <path class="cls-8" d="m56.12,66.41c-.49,0-.89-.16-1.2-.47-.64-.66-.61-1.8-.58-2.71,0-.24.01-.45,0-.63,0-.61,0-3.6,0-6.75,0-3.67,0-7.54,0-8.01-.04-.37.08-.74.35-1.04.56-.63,1.75-.91,3.83-.91.96,0,1.98.06,2.88.11.71.04,1.34.08,1.82.08s.59-.04.62-.05l.07-.03s.08,0,.08,0c.56,0,.96.16,1.27.47.64.66.6,1.79.58,2.7,0,.24-.01.46,0,.64-.02.27-.01.56,0,.87.04.83.09,1.91-.49,2.53.26.6.23,1.42.2,2.12-.01.31-.03.58,0,.78v.05s0,.05,0,.05c-.02.18,0,.43,0,.7.03.69.06,1.57-.26,2.18.64.64.59,1.8.55,2.62-.01.3-.03.58,0,.8,0,.25,0,.46,0,.69.03.92.06,2.06-.58,2.72-.3.31-.71.47-1.21.47h-7.94Z"/>
            <path class="cls-10" d="m58.53,46.39c1.71,0,3.6.19,4.69.19.36,0,.64-.02.79-.07.02,0,.03,0,.05,0,1.66,0,1.23,2.27,1.28,3.33-.1.87.37,2.8-.67,3.27.65.55.3,2.33.38,3.07-.08.75.3,2.58-.53,3.04,1.22.39.72,2.42.82,3.36-.04,1.07.38,3.33-1.28,3.33-.02,0-.03,0-.05,0h-7.83s-.04,0-.06,0c-1.65,0-1.22-2.28-1.27-3.33,0-1.27.01-13.87,0-14.74-.13-1.18,1.65-1.44,3.68-1.44m0-1c-2.27,0-3.53.32-4.2,1.07-.35.39-.52.89-.47,1.42,0,.6,0,4.3,0,7.88,0,3.18,0,6.23,0,6.82,0,.21,0,.41,0,.63-.03.95-.07,2.26.72,3.07.27.28.77.62,1.55.62h.09s7.8,0,7.8,0h0c.84,0,1.34-.34,1.61-.62.79-.82.75-2.13.72-3.09,0-.22-.01-.41,0-.58v-.07s0-.07,0-.07c-.02-.16,0-.45,0-.72.03-.78.08-1.94-.47-2.73.24-.68.21-1.49.18-2.11,0-.25-.02-.5,0-.63v-.11s0-.11,0-.11c-.02-.14,0-.43,0-.7.03-.65.06-1.41-.13-2.05.51-.77.46-1.86.42-2.65-.01-.28-.03-.56,0-.71v-.08s0-.08,0-.08c0-.17,0-.38,0-.6.03-.95.07-2.25-.72-3.06-.28-.28-.77-.62-1.56-.62h-.08s-.16,0-.16,0l-.15.05s0,0,0,0c-.01,0-.13.02-.46.02-.46,0-1.11-.04-1.79-.08-.9-.05-1.93-.11-2.9-.11h0Z"/>
          </g>
          <g>
            <path class="cls-8" d="m70.77,66.45c-.54,0-1.07,0-1.59-.02-.47,0-.93-.02-1.36-.02,0,0-.31,0-.31,0-.56,0-.96-.16-1.26-.47-.64-.66-.61-1.79-.58-2.71,0-.24.01-.45,0-.63,0-.6,0-3.6,0-6.74,0-3.67,0-7.55,0-8.02-.03-.44.11-.85.41-1.17.49-.52,1.35-.75,2.77-.75.62,0,1.28.04,1.88.09.49.03.94.06,1.3.06.33,0,.46-.03.51-.04l.08-.02h.08c2.05.05,3.58.72,4.57,1.99,1.6,2.07,1.29,5.11.9,6.92,1.25,1.29,1.25,3.49,1.25,5.28v.36c-.1,5.89-5.89,5.89-8.67,5.89Z"/>
            <path class="cls-10" d="m68.87,46.42c1.13,0,2.37.15,3.18.15.28,0,.51-.02.66-.07,5.47.12,5.79,4.92,4.94,8.58,1.39,1.18,1.29,3.62,1.3,5.47-.08,4.88-4.3,5.39-8.17,5.39-1.04,0-2.05-.04-2.96-.04-.1,0-.21,0-.31,0-.02,0-.04,0-.06,0-1.65,0-1.22-2.28-1.27-3.33,0-1.27.01-13.88,0-14.74-.07-1.16,1.21-1.41,2.68-1.41m2.56,12.65c-.05,0-.1,0-.13,0v.07s.08,0,.13,0c.16,0,.37,0,.58,0,.32,0,.65,0,.82-.04-.17-.03-.49-.04-.82-.04-.21,0-.43,0-.59,0m-2.56-13.65c-1.06,0-2.38.1-3.14.91-.39.41-.58.96-.54,1.56,0,.41,0,4.18,0,7.82,0,3.2,0,6.27,0,6.86,0,.21,0,.41,0,.63-.03.95-.07,2.26.72,3.07.27.28.77.62,1.56.62h.09s.27,0,.27,0c.43,0,.88,0,1.36.02.52,0,1.06.02,1.6.02,2.71,0,9.06,0,9.17-6.37v-.38c0-1.79,0-3.98-1.21-5.42.38-1.92.6-4.94-1.05-7.07-1.08-1.4-2.75-2.14-4.96-2.19h-.16s-.16.04-.16.04c0,0-.09.02-.37.02-.34,0-.79-.03-1.26-.06-.59-.04-1.27-.09-1.92-.09h0Z"/>
          </g>
          <g>
            <path class="cls-8" d="m81.93,66.48c-.41,0-.88-.02-1.43-.07h-.01c-.5,0-.9-.16-1.2-.46-.64-.66-.61-1.81-.58-2.72,0-.23.01-.44,0-.62,0-.59,0-14.28,0-14.76,0-1.03.8-1.83,1.83-1.83.13,0,.22.01.32.01.18,0,.38,0,.59-.02.25-.01.52-.02.79-.02.73,0,1.63.07,2.18.63.3.31.45.73.44,1.24v2.21c.16-.21.32-.45.5-.68,1.93-2.64,1.94-2.66,2.01-2.72.47-.55,1.94-.76,3.04-.76.78,0,2.66.12,3.16,1.21.22.48.14,1.01-.25,1.6.14.18.22.39.25.63.18,1.32-1.43,3.11-2.85,4.68-.46.51-1.02,1.13-1.23,1.46.21.37.83,1.15,1.34,1.8,2.03,2.58,3.56,4.65,3.3,5.96-.04.18-.1.34-.2.47.38.64.46,1.19.22,1.66-.37.73-1.4,1.08-3.25,1.08-.46,0-.89-.02-1.22-.04h-.06s-.09,0-.13,0c-1.09,0-2.24-1.65-3.74-3.99-.27-.41-.54-.83-.75-1.14l-.13.16c0,.49,0,.93.02,1.33.04,1.38.06,2.38-.56,3.02-.46.47-1.17.67-2.38.67Z"/>
            <path class="cls-10" d="m90.4,46.4c1.86,0,3.72.63,2.24,2.36,1.96,1.26-3.33,5.58-3.72,6.71.29,1.08,6.26,7.09,4.34,8.17,1.5,2.01-.66,2.31-2.38,2.31-.51,0-.98-.03-1.31-.04-.03,0-.07.01-.11.01-1.34,0-3.75-4.75-4.5-5.42l-.62.78c-.03,3.37.61,4.7-2.43,4.7-.4,0-.86-.02-1.39-.07-.02,0-.04,0-.06,0-1.65,0-1.23-2.28-1.27-3.33,0-1.27,0-13.87,0-14.74,0-.75.58-1.33,1.33-1.33.1,0,.2.01.32.01.39,0,.89-.04,1.38-.04,1.08,0,2.15.18,2.12,1.36,0,.93,0,2.82,0,3.75.07-.06,3.26-4.48,3.34-4.54.34-.39,1.53-.64,2.71-.64m0-1s0,0,0,0c-.61,0-2.66.07-3.46.98h0c-.13.15-.44.57-1.59,2.14v-.69c.02-.78-.3-1.29-.58-1.57-.68-.69-1.71-.78-2.54-.78-.28,0-.55.01-.81.02-.2,0-.4.02-.57.02-.08,0-.16,0-.23,0h-.05s-.05,0-.05,0c-1.31,0-2.33,1.02-2.33,2.33,0,.47,0,4.31,0,7.97,0,3.16,0,6.19,0,6.78,0,.2,0,.4,0,.62-.03.96-.07,2.27.72,3.09.27.28.77.62,1.56.62h.03c.55.04,1.02.07,1.42.07.96,0,2.04-.1,2.74-.82.77-.79.75-1.87.71-3.36,1.61,2.49,2.77,4.12,4.1,4.12.05,0,.1,0,.15,0h.02c.33.02.77.04,1.24.04,1.41,0,3.1-.15,3.7-1.35.28-.56.25-1.19-.1-1.89.05-.12.09-.25.12-.38.3-1.51-1.22-3.59-3.39-6.36-.4-.5-.86-1.1-1.13-1.48.25-.31.67-.78,1-1.14,1.87-2.07,3.17-3.65,2.98-5.09-.03-.2-.08-.39-.17-.56.41-.78.31-1.39.12-1.8-.6-1.3-2.52-1.5-3.61-1.5h0Z"/>
          </g>
          <g>
            <path class="cls-8" d="m96.75,66.45c-.32,0-.68-.01-1.08-.02,0,0-.45-.01-.46-.01-.53,0-.94-.16-1.24-.47-.64-.66-.61-1.8-.58-2.72,0-.23.01-.45,0-.62v-12.76c0-.2,0-.41,0-.63-.03-.92-.06-2.06.58-2.72.3-.31.71-.47,1.21-.47.17.01.26.01.36.01.18,0,.38,0,.59-.02.25-.01.52-.02.79-.02.73,0,1.63.07,2.18.63.3.31.45.73.44,1.24,0,.37,0,13.96,0,14.73.15,1.72,0,2.63-.51,3.21-.5.55-1.25.66-2.29.66Z"/>
            <path class="cls-10" d="m96.93,46.48c1.08,0,2.15.18,2.12,1.36,0,.91,0,13.43,0,14.74.26,2.97-.35,3.37-2.3,3.37-.44,0-.94-.02-1.52-.04-.02,0-.04,0-.06,0-1.66,0-1.23-2.27-1.27-3.33,0,0,0-12.74,0-12.74.04-1.07-.38-3.33,1.29-3.33.01,0,.03,0,.04,0,.1,0,.2.01.32.01.39,0,.89-.04,1.38-.04m0-1h0c-.28,0-.55.01-.81.02-.2,0-.4.02-.57.02-.08,0-.16,0-.23,0h-.03s-.03,0-.03,0h-.01s-.06,0-.06,0c-.8,0-1.3.34-1.57.62-.79.82-.75,2.13-.72,3.09,0,.21.01.41,0,.58v12.78c0,.21,0,.41,0,.63-.03.96-.07,2.27.72,3.08.27.28.77.62,1.56.62h.05s.43.01.43.01c.4.01.77.02,1.1.02.92,0,1.96-.06,2.65-.82.72-.79.78-2,.65-3.59,0-.83,0-4.86,0-8.49,0-3.03,0-5.79,0-6.21.02-.78-.3-1.29-.58-1.57-.68-.7-1.71-.78-2.54-.78h0Z"/>
          </g>
          <g>
            <path class="cls-8" d="m112.28,66.44c-.32,0-.65-.02-.96-.03-.26-.01-.5-.03-.72-.03-.14,0-.26,0-.37.02-.04.01-.12.02-.2.02-1.24,0-2.44-2.26-3.99-5.45-.09-.19-.19-.39-.28-.58v4.19c.01.49-.13.91-.44,1.22-.54.56-1.44.63-2.17.63-.27,0-.53-.01-.78-.02-.21,0-.41-.02-.59-.02-.1,0-.2,0-.29.01h-.11c-.49,0-.89-.15-1.2-.46-.64-.66-.61-1.81-.58-2.72,0-.23.01-.44,0-.62v-10.77c0-.98,0-1.58.03-1.94h-.03c-.19-1.62-.04-2.61.5-3.21.58-.66,1.52-.71,2.35-.71.28,0,.57,0,.89.02.3,0,.63.02.97.02.06,0,.11-.01.17-.01,1.25,0,2.44,2.26,4,5.46.09.19.19.38.28.57v-2.18c0-.2,0-.41,0-.63-.03-.92-.06-2.06.58-2.72.3-.31.71-.47,1.21-.47.17.01.26.01.36.01.18,0,.38,0,.59-.02.25-.01.52-.02.79-.02.73,0,1.63.07,2.18.63.3.31.45.73.44,1.24v16.73c.02.49-.13.91-.44,1.22-.55.57-1.46.64-2.19.64Z"/>
            <path class="cls-10" d="m102.45,46.47c.55,0,1.19.03,1.91.04.04,0,.08-.01.12-.01,1.54,0,4.03,6.69,4.78,7.44,0,0,0-4.09,0-4.09.04-1.07-.38-3.33,1.29-3.33.01,0,.03,0,.04,0,.1,0,.2.01.32.01.39,0,.89-.04,1.38-.04,1.08,0,2.15.18,2.12,1.36,0,2.83,0,13.91,0,16.74.04,1.16-1.01,1.36-2.13,1.36-.6,0-1.21-.06-1.68-.06-.17,0-.32,0-.45.03-.04.01-.08.02-.12.02-1.54,0-4.03-6.71-4.77-7.44,0,1.32,0,4.81,0,6.09.03,1.17-1.03,1.36-2.1,1.36-.49,0-.99-.04-1.38-.04-.12,0-.23,0-.33.01-.02,0-.04,0-.06,0-1.65,0-1.23-2.28-1.27-3.33,0,0,0-12.74,0-12.74-.35-3,.53-3.37,2.34-3.37m0-1c-1.01,0-2.03.11-2.72.88-.64.72-.83,1.8-.62,3.6h.02c-.02.4-.02.99-.02,1.87v4.38s0,6.37,0,6.37c0,.21,0,.41,0,.62-.03.96-.07,2.27.72,3.09.27.28.77.62,1.56.62h.09s.03,0,.03,0h.03c.07-.01.15-.01.24-.01.17,0,.37,0,.57.02.26.01.53.02.81.02.82,0,1.85-.09,2.52-.78.28-.28.6-.79.58-1.6,0-.44,0-1.18,0-2.01,1.39,2.75,2.44,4.38,3.77,4.38.1,0,.2-.01.3-.03.05,0,.13-.01.27-.01.21,0,.45.01.7.03.32.02.66.03.99.03.83,0,1.87-.09,2.55-.79.28-.29.6-.8.58-1.6,0-1.52,0-5.54,0-9.33v-7.38c.02-.78-.3-1.29-.58-1.57-.68-.7-1.71-.78-2.54-.78-.28,0-.55.01-.81.02-.2,0-.4.02-.57.02-.08,0-.16,0-.23,0h-.03s-.04,0-.04,0h-.01s-.06,0-.06,0c-.8,0-1.29.34-1.57.62-.79.82-.75,2.13-.72,3.09,0,.21.01.41,0,.58v.07c-1.39-2.75-2.44-4.38-3.78-4.38h0c-.07,0-.14,0-.2.01-.32,0-.63-.01-.92-.02-.32,0-.63-.02-.91-.02h0Z"/>
          </g>
          <g>
            <path class="cls-8" d="m116.22,66.41c-.53,0-.96-.16-1.27-.49-.64-.67-.6-1.82-.57-2.75.01-.3.02-.57,0-.8.01-.22,0-.45,0-.71-.03-1.19-.02-2.15.42-2.61l3.55-5.19c-.22,0-.42.01-.61.01-1.35,0-2.13-.22-2.62-.72-.63-.66-.6-1.64-.54-2.99.03-.67.06-1.43.02-2.31-.05-.34.05-.71.3-1,.58-.67,1.91-.97,4.33-.97,1.12,0,2.3.06,3.34.12.8.04,1.52.08,2.05.08s.65-.04.67-.05l.08-.03h.09c.54,0,.96.16,1.27.48.64.67.6,1.82.57,2.75-.01.3-.02.58,0,.8-.01.23,0,.46,0,.73.03,1.18.02,2.13-.42,2.59l-3.6,5.25c.23,0,.44-.01.65-.02.32-.01.61-.02.88-.02.81,0,1.64.08,2.19.69.55.61.71,1.65.51,3.37,0,.14,0,.35.01.57.03.92.06,2.07-.58,2.73-.3.31-.71.47-1.21.47h-9.53Z"/>
            <path class="cls-10" d="m119.25,46.39c1.97,0,4.16.2,5.39.2.4,0,.7-.02.85-.08h.01c1.8,0,1.23,2.44,1.32,3.57-.05.62.18,2.52-.31,2.96l-4.16,6.07c.17,0,.33,0,.49,0,.75,0,1.42-.05,2-.05,1.69,0,2.55.39,2.2,3.5-.04,1.07.38,3.33-1.28,3.33-.02,0-.03,0-.05,0,0,0-9.48,0-9.48,0h-.01c-1.8,0-1.23-2.44-1.32-3.57.04-.62-.17-2.53.31-2.96l4.16-6.07c-.62.05-1.15.08-1.6.08-3.63,0-2.47-1.65-2.64-5.54-.17-1.18,1.83-1.45,4.14-1.45m0-1v1-1c-2.61,0-4.02.34-4.71,1.14-.33.39-.48.88-.42,1.4.03.84,0,1.57-.02,2.22-.06,1.42-.1,2.54.68,3.36.54.57,1.34.83,2.64.87l-2.99,4.36c-.54.6-.57,1.6-.53,2.94,0,.24.01.46,0,.59v.07s0,.07,0,.07c.01.18,0,.45,0,.74-.04,1.02-.09,2.3.71,3.12.28.29.79.64,1.62.64v-.02c.16.02.31.02.42.02h1.07s3.26,0,3.26,0h4.74c.84,0,1.34-.34,1.61-.62.79-.82.75-2.13.72-3.09,0-.2-.01-.38,0-.54.21-1.87.01-2.98-.64-3.72-.67-.75-1.63-.86-2.56-.86-.18,0-.37,0-.57.01l3.02-4.41c.54-.6.57-1.6.53-2.92,0-.24-.01-.49,0-.6v-.08s0-.08,0-.08c-.01-.18,0-.46,0-.74.04-1.02.09-2.29-.7-3.11-.28-.29-.79-.64-1.62-.64h-.18l-.18.06s0,0,0,0c-.02,0-.16.02-.5.02-.51,0-1.21-.04-2.03-.08-1.05-.06-2.23-.12-3.36-.12h0Z"/>
          </g>
          <g>
            <path class="cls-8" d="m45.93,106.77c-2.1,0-3.29-.28-3.85-.91-.27-.3-.38-.68-.33-1.09v-16.68c-.04-.36.07-.74.34-1.04.56-.63,1.74-.91,3.81-.91.96,0,1.98.06,2.88.11.71.04,1.35.08,1.83.08s.6-.04.63-.05l.08-.03s.08,0,.08,0c.56,0,.96.16,1.27.47.64.66.61,1.81.58,2.73,0,.23-.01.44,0,.61-.03.28-.01.56,0,.86.04.83.09,1.91-.49,2.54.26.6.23,1.42.2,2.12-.01.31-.03.58,0,.78v.05s0,.05,0,.05c-.02.18,0,.43,0,.7.03.69.06,1.57-.26,2.18.64.64.58,1.79.55,2.6-.01.31-.03.61,0,.81,0,.25,0,.46,0,.69.03.92.06,2.06-.58,2.73-.3.31-.71.47-1.21.47h-.09l-.13-.03s-.15-.05-.61-.05-1.11.04-1.81.08c-.9.05-1.92.11-2.88.11Z"/>
            <path class="cls-10" d="m45.9,86.64c1.71,0,3.6.19,4.7.19.36,0,.64-.02.8-.08.02,0,.03,0,.05,0,1.66,0,1.24,2.26,1.28,3.33-.1.87.37,2.8-.67,3.27.65.55.3,2.33.38,3.07-.08.75.3,2.58-.53,3.04,1.23.4.71,2.42.82,3.36-.04,1.07.38,3.33-1.29,3.33-.01,0-.03,0-.04,0-.15-.05-.42-.07-.78-.07-1.09,0-2.98.19-4.69.19-2.04,0-3.83-.27-3.69-1.44,0-2.83,0-13.91,0-16.74-.13-1.18,1.64-1.44,3.66-1.44m0-1v1-1c-2.26,0-3.51.32-4.19,1.07-.35.39-.52.88-.48,1.42,0,1.54,0,5.35,0,9.02,0,3.2,0,6.28,0,7.63-.05.53.11,1.02.46,1.41.67.76,1.94,1.08,4.23,1.08.98,0,2-.06,2.91-.11.68-.04,1.33-.08,1.78-.08.36,0,.46.02.48.03l.15.05h.13s.01,0,.01,0h.06c.8,0,1.29-.34,1.57-.62.79-.82.75-2.13.72-3.09,0-.21-.01-.41,0-.58v-.07s0-.07,0-.07c-.02-.16,0-.45,0-.73.03-.78.08-1.92-.47-2.71.24-.68.21-1.49.18-2.11,0-.25-.02-.5,0-.63v-.11s0-.11,0-.11c-.02-.14,0-.43,0-.7.03-.65.06-1.41-.13-2.05.51-.77.46-1.86.42-2.65-.01-.27-.03-.56,0-.71v-.07s0-.07,0-.07c0-.17,0-.37,0-.58.03-.96.07-2.27-.72-3.09-.28-.28-.77-.62-1.57-.62h-.07s-.16,0-.16,0l-.15.05s0,0,0,0c-.01,0-.13.02-.46.02-.46,0-1.11-.04-1.8-.08-.9-.05-1.93-.11-2.9-.11h0Z"/>
          </g>
          <g>
            <path class="cls-8" d="m64.41,106.7c-.47,0-.92-.02-1.25-.04.04,0-.02,0-.08,0-1.22,0-2.05-1.61-2.78-3.02-.1-.2-.2-.39-.3-.57-.09.17-.19.36-.29.55-.74,1.43-1.58,3.04-2.8,3.04-.06,0-.12,0-.19-.01-.26.02-.7.05-1.17.05-1.76,0-2.75-.34-3.13-1.06-.25-.47-.19-1.05.18-1.71-.09-.13-.15-.29-.19-.46-.25-1.21.92-3.08,2.48-5.41.44-.65.97-1.44,1.12-1.79-.14-.33-.64-1.06-1.04-1.67-1.48-2.21-2.59-4-2.34-5.17.04-.17.1-.32.19-.46-.37-.66-.43-1.23-.18-1.7.38-.73,1.38-1.07,3.14-1.07.46,0,.89.02,1.22.04-.03,0,.03,0,.08,0,1.22,0,2.03,1.54,2.67,2.78.08.16.17.32.25.47.08-.15.16-.31.25-.47.64-1.24,1.44-2.78,2.66-2.78.06,0,.11,0,.17.01.24-.02.68-.05,1.14-.05,1.75,0,2.74.34,3.12,1.06.25.47.19,1.05-.18,1.71.09.14.16.3.19.47.24,1.18-.86,2.95-2.33,5.14-.41.61-.86,1.28-1.03,1.64l3.43,5.8c.36.65.32,1.37-.05,1.89.37.66.44,1.24.19,1.71-.38.73-1.38,1.06-3.15,1.06h0Z"/>
            <path class="cls-10" d="m55.78,86.71c.45,0,.87.02,1.19.04.04,0,.08,0,.11,0,1.33,0,2.26,2.92,2.92,3.69.66-.76,1.59-3.69,2.91-3.69.04,0,.07,0,.11,0,.32-.02.75-.04,1.2-.04,1.66,0,3.7.32,2.31,2.34,1.64,1.06-2.83,6.12-3.08,7.23l3.55,6c.31.56.23,1.21-.25,1.58,1.4,2.02-.66,2.34-2.34,2.34-.46,0-.9-.02-1.22-.04-.04,0-.07,0-.11,0-1.34,0-2.41-3.27-3.08-4.03-.66.75-1.77,4.03-3.09,4.03-.04,0-.08,0-.11,0-.33.02-.77.04-1.24.04-1.67,0-3.71-.31-2.32-2.34-1.66-1.06,3.06-6.47,3.3-7.58-.23-1.07-4.73-6.2-3.08-7.23-1.4-2.02.66-2.34,2.32-2.34m0-1s0,0,0,0c-1.24,0-2.96.14-3.58,1.34-.3.57-.28,1.21.06,1.92-.05.11-.09.23-.12.36-.3,1.37.81,3.17,2.42,5.56.31.46.7,1.05.9,1.4-.2.36-.64,1.01-.97,1.51-1.68,2.51-2.85,4.39-2.55,5.79.03.13.06.25.11.36-.34.72-.36,1.37-.06,1.94.62,1.19,2.34,1.32,3.58,1.32.46,0,.89-.02,1.21-.04.05,0,.09,0,.14,0,1.42,0,2.35-1.6,3.09-3.02.73,1.41,1.65,3.02,3.08,3.02.04,0,.09,0,.13,0,.29.02.74.04,1.2.04,1.24,0,2.97-.14,3.6-1.33.3-.57.28-1.21-.06-1.93.33-.64.31-1.43-.08-2.14l-3.3-5.59c.21-.35.58-.91.87-1.34,1.59-2.36,2.69-4.15,2.4-5.52-.03-.13-.07-.26-.12-.38.34-.72.36-1.37.06-1.94-.63-1.19-2.33-1.33-3.56-1.33-.47,0-.91.02-1.19.04-.04,0-.08,0-.12,0h0c-1.38,0-2.23,1.4-2.91,2.68-.68-1.28-1.53-2.68-2.92-2.68h0s-.09,0-.13,0c-.34-.02-.74-.04-1.17-.04h0Z"/>
          </g>
          <g>
            <path class="cls-8" d="m75.21,106.82c-3.11,0-6.04-1.2-7.83-3.2-1.62-1.82-2.33-4.27-2.02-7.1-.33-2.77.34-5.2,1.96-7.02,1.84-2.08,4.83-3.32,8-3.32,2.42,0,4.45.76,5.43,2.04.58.76.78,1.67.59,2.66.34.4.45.93.31,1.5-.35,1.44-2.17,2.93-3.18,3.14l-.21.04-.17-.12c-1.1-.74-2.43-1.18-3.55-1.18-1.06,0-2.42.4-2.9,2.25.48,1.85,1.84,2.24,2.9,2.24,1.13,0,2.45-.44,3.55-1.18l.16-.1.19.02c1.31.17,3.04,2.22,3.3,3.32.03.5-.12.95-.4,1.29.23.93.06,1.82-.48,2.56-.98,1.35-3.08,2.15-5.64,2.15h0Z"/>
            <path class="cls-10" d="m75.31,86.68c3.39,0,6.22,1.59,5.47,4.36,1.46,1.19-1.24,3.75-2.42,3.99-1.12-.75-2.53-1.27-3.83-1.27-1.56,0-2.95.75-3.42,2.75.47,1.99,1.85,2.74,3.41,2.74,1.3,0,2.72-.52,3.83-1.27,1.05.13,2.66,2,2.88,2.94.02.39-.16.78-.47,1.04.89,2.7-2.05,4.35-5.56,4.35-4.58,0-10.13-2.82-9.35-9.81-.86-6.9,4.82-9.84,9.45-9.84m0-1s0,0,0,0c-3.31,0-6.44,1.3-8.37,3.49-1.7,1.93-2.42,4.47-2.08,7.36-.3,2.95.44,5.52,2.16,7.43,1.89,2.11,4.96,3.37,8.21,3.37,2.71,0,4.97-.88,6.04-2.36.59-.81.79-1.75.61-2.74.26-.4.4-.87.38-1.34v-.09s-.03-.09-.03-.09c-.3-1.26-2.16-3.51-3.73-3.71l-.37-.05-.31.21c-1.02.69-2.24,1.1-3.27,1.1-1.25,0-2.03-.57-2.38-1.74.35-1.18,1.13-1.75,2.38-1.75,1.02,0,2.25.41,3.27,1.1l.35.23.41-.09c1.26-.26,3.18-1.97,3.56-3.51.16-.64.06-1.25-.27-1.75.15-1.04-.1-2.01-.72-2.83-1.07-1.4-3.25-2.24-5.83-2.24h0Z"/>
          </g>
          <g>
            <path class="cls-8" d="m93.59,106.68c-.26,0-.53-.01-.78-.02-.21,0-.41-.02-.59-.02-.11,0-.21,0-.3.01-.57,0-.98-.18-1.3-.52-.81-.88-.7-2.65-.59-4.21.04-.54.07-1.06.06-1.45h-2.71v4.35c.01.5-.13.91-.44,1.23-.54.55-1.42.62-2.14.62-.26,0-.53-.01-.78-.02-.21,0-.41-.02-.59-.02-.11,0-.22,0-.31.01h-.11c-.49,0-.9-.15-1.2-.46-.64-.66-.61-1.8-.58-2.72,0-.23.01-.45,0-.62v-12.76c0-.2,0-.41,0-.63-.03-.92-.06-2.06.58-2.72.3-.31.71-.47,1.21-.47.17.01.26.01.36.01.18,0,.38,0,.59-.02.25-.01.52-.02.79-.02.73,0,1.63.07,2.18.63.3.31.45.73.44,1.24,0,.55,0,3.99,0,4.6h2.66v-4.62c-.01-.5.13-.91.44-1.23.54-.56,1.44-.63,2.16-.63.27,0,.53.01.79.02.21,0,.41.02.59.02.1,0,.2,0,.28-.01h.11c.49,0,.89.15,1.2.46.64.66.61,1.81.58,2.72,0,.23-.01.44,0,.62,0,.63,0,14.31,0,14.76.01.5-.13.92-.44,1.23-.54.56-1.43.63-2.15.63h0Z"/>
            <path class="cls-10" d="m84.76,86.72c1.08,0,2.15.18,2.12,1.36,0,1.19,0,3.91,0,5.12h3.65c0-1.21,0-3.93,0-5.12-.03-1.17,1.03-1.36,2.1-1.36.49,0,.99.04,1.38.04.12,0,.23,0,.33-.01.02,0,.04,0,.06,0,1.65,0,1.23,2.28,1.27,3.33,0,1.27,0,13.87,0,14.74.03,1.17-1.02,1.35-2.09,1.35-.49,0-.98-.04-1.37-.04-.13,0-.25,0-.35.02-2.3-.03-1.01-4.67-1.33-6.18h-3.65c0,1.17,0,3.71,0,4.85.03,1.17-1.01,1.35-2.08,1.35-.49,0-.98-.04-1.37-.04-.14,0-.26,0-.37.02-.02,0-.04,0-.06,0-1.66,0-1.23-2.27-1.27-3.33,0,0,0-12.74,0-12.74.04-1.07-.38-3.33,1.29-3.33.01,0,.03,0,.04,0,.1,0,.2.01.32.01.39,0,.89-.04,1.38-.04m0-1h0c-.28,0-.55.01-.81.02-.2,0-.4.02-.57.02-.08,0-.16,0-.23,0h-.03s-.03,0-.03,0h-.01s-.06,0-.06,0c-.8,0-1.3.34-1.57.62-.79.82-.75,2.13-.72,3.09,0,.21.01.41,0,.58v12.78c0,.21,0,.41,0,.63-.03.96-.07,2.27.72,3.08.27.28.77.62,1.56.62h.09s.04,0,.04,0h.04c.08-.01.16-.02.26-.02.17,0,.37,0,.57.02.26.01.53.02.8.02.81,0,1.83-.09,2.5-.77.28-.28.6-.79.58-1.6,0-.58,0-1.6,0-2.59v-1.23h1.7c-.01.29-.03.61-.05.91-.11,1.66-.24,3.54.72,4.58.41.44.96.68,1.6.69h.06s.06,0,.06,0c.07,0,.16,0,.25,0,.17,0,.37,0,.57.02.26.01.53.02.8.02.82,0,1.84-.09,2.51-.78.28-.28.6-.79.58-1.6,0-.44,0-4.24,0-7.88,0-3.19,0-6.25,0-6.84,0-.2,0-.4,0-.62.03-.96.07-2.27-.72-3.09-.27-.28-.77-.62-1.56-.62h-.09s-.03,0-.03,0h-.03c-.07.01-.15.01-.24.01-.17,0-.37,0-.57-.02-.26-.01-.53-.02-.81-.02-.82,0-1.85.09-2.52.78-.28.28-.6.79-.58,1.6v2.73s0,1.36,0,1.36h-1.66c0-.53,0-1.15,0-1.75,0-.92,0-1.81,0-2.37.02-.77-.3-1.28-.58-1.57-.68-.7-1.71-.78-2.54-.78h0Z"/>
          </g>
          <g>
            <path class="cls-8" d="m109.1,106.69c-.33,0-.66-.01-.96-.02h-.39s-.05,0-.1,0c-1.34,0-1.75-1.38-2.02-2.3-.02-.08-.05-.16-.07-.24h-3.64c-.02.07-.04.15-.07.23-.27.92-.69,2.31-2.03,2.31-.05,0-.1,0-.15,0h-.32c-.3.03-.63.04-.97.04-1.06,0-2.35-.11-2.87-.97-.3-.49-.28-1.13.05-1.89-.45-1.02.8-4.76,3.57-12.13.69-1.84,1.4-3.74,1.44-4.05v-.11s.03-.05.03-.05c.28-.75,1-1.24,1.82-1.24.16.02.27.02.38.02.2,0,.43-.01.67-.02.29-.01.59-.03.9-.03.6,0,2.2,0,2.56,1.34l5.12,14.69c.21.53.16,1.11-.12,1.56.34.78.35,1.42.05,1.92-.52.86-1.81.97-2.88.97Z"/>
            <path class="cls-10" d="m104.36,86.72c.94,0,1.86.15,2.08.97l5.13,14.72c.19.46.11.99-.23,1.33,1.11,2.16-.61,2.45-2.24,2.45-.48,0-.95-.02-1.33-.04-.04,0-.08,0-.11,0-1.21,0-1.4-1.67-1.73-2.53h-4.36c-.33.86-.53,2.53-1.73,2.53-.04,0-.07,0-.11,0-.39.01-.85.04-1.33.04-1.62,0-3.34-.29-2.23-2.44-1.37-.3,4.98-15.35,4.91-16.08.21-.55.74-.91,1.35-.91.11.01.24.02.39.02.44,0,1-.05,1.56-.05m0-1c-.31,0-.62.02-.92.03-.23.01-.45.02-.64.02-.09,0-.18,0-.25-.01h-.07s-.07,0-.07,0c-1.03,0-1.93.61-2.29,1.56l-.08.21v.11c-.11.48-.79,2.29-1.39,3.89-3.07,8.18-3.93,11.05-3.63,12.28-.32.85-.3,1.58.06,2.17.65,1.07,2.1,1.21,3.3,1.21.34,0,.68-.01.99-.02h.32s.09,0,.13,0c1.64,0,2.18-1.58,2.46-2.53h2.9c.29.95.83,2.53,2.46,2.53.04,0,.08,0,.13,0h.34c.31.02.64.03.98.03,1.19,0,2.65-.14,3.3-1.21.36-.59.38-1.31.07-2.15.25-.54.27-1.19.03-1.79l-5.11-14.65c-.48-1.67-2.4-1.67-3.03-1.67h0Z"/>
          </g>
          <g>
            <path class="cls-8" d="m123.78,106.69c-.28,0-.58,0-.89-.02-.3,0-.63-.02-.97-.02-.06,0-.11.01-.17.01-1.24,0-2.44-2.26-4-5.46-.09-.19-.18-.38-.28-.57v2.18c0,.2,0,.41,0,.63.03.92.06,2.06-.58,2.72-.3.31-.71.47-1.21.47-.17-.01-.26-.01-.36-.01-.18,0-.38,0-.59.02-.25.01-.52.02-.79.02-.73,0-1.63-.07-2.18-.63-.31-.31-.45-.73-.44-1.24v-16.73c-.02-.49.13-.91.44-1.22.55-.57,1.46-.64,2.19-.64.32,0,.65.02.96.03.26.01.5.03.72.03.14,0,.26,0,.37-.02.04-.01.12-.02.2-.02,1.24,0,2.44,2.26,3.99,5.45.09.19.19.39.28.58v-4.19c-.01-.49.13-.91.44-1.23.54-.56,1.44-.63,2.16-.63.27,0,.53.01.79.02.21,0,.41.02.59.02.1,0,.2,0,.28-.01h.11c.49,0,.89.15,1.2.46.64.66.61,1.81.58,2.73,0,.23-.01.44,0,.62v12.76c.19,1.57.03,2.56-.5,3.16-.58.66-1.52.71-2.35.71Z"/>
            <path class="cls-10" d="m113.95,86.72c.6,0,1.21.06,1.68.06.17,0,.32,0,.45-.03.04-.01.08-.02.12-.02,1.54,0,4.03,6.71,4.77,7.44,0-1.32,0-4.81,0-6.09-.03-1.17,1.03-1.36,2.1-1.36.49,0,.99.04,1.38.04.12,0,.23,0,.33-.01.02,0,.04,0,.06,0,1.65,0,1.23,2.28,1.27,3.33,0,0,0,12.74,0,12.74.35,3-.53,3.37-2.34,3.37-.55,0-1.19-.03-1.91-.04-.04,0-.08.01-.12.01-1.54,0-4.03-6.69-4.78-7.44,0,0,0,4.09,0,4.09-.04,1.07.38,3.33-1.29,3.33-.01,0-.03,0-.04,0-.1,0-.2-.01-.32-.01-.39,0-.89.04-1.38.04-1.08,0-2.15-.18-2.12-1.36,0-2.83,0-13.91,0-16.74-.04-1.16,1.01-1.36,2.13-1.36m0-1c-.83,0-1.87.09-2.55.79-.28.29-.6.8-.58,1.6,0,1.52,0,5.54,0,9.33v7.38c-.02.78.3,1.29.58,1.57.68.7,1.71.78,2.54.78.28,0,.55-.01.81-.02.2,0,.4-.02.57-.02.08,0,.16,0,.23,0h.03s.04,0,.04,0h.01s.06,0,.06,0c.8,0,1.3-.34,1.57-.62.79-.82.75-2.13.72-3.09,0-.21-.01-.41,0-.58v-.07c1.39,2.75,2.44,4.38,3.78,4.38.07,0,.14,0,.2-.01.32,0,.63.01.92.02.32,0,.63.02.91.02,1.01,0,2.03-.11,2.72-.88.64-.72.83-1.8.62-3.6h-.02c.02-.4.02-.99.02-1.87v-4.38s0-6.37,0-6.37c0-.21,0-.41,0-.62.03-.96.07-2.27-.72-3.09-.27-.28-.77-.62-1.56-.62h-.09s-.03,0-.03,0h-.03c-.07.01-.15.01-.24.01-.17,0-.37,0-.57-.02-.26-.01-.53-.02-.81-.02-.82,0-1.85.09-2.52.78-.28.28-.6.79-.58,1.6,0,.44,0,1.18,0,2.01-1.39-2.76-2.44-4.38-3.77-4.38-.1,0-.21.01-.31.03-.05,0-.13.01-.27.01-.21,0-.45-.01-.7-.03-.32-.02-.66-.03-.99-.03h0Z"/>
          </g>
          <g>
            <path class="cls-8" d="m135.45,106.94c-2.87,0-5.28-1.14-6.97-3.3-1.48-1.89-2.3-4.43-2.3-7.14,0-5.02,2.89-10.43,9.25-10.43h.22c1.66,0,5.4.83,6.53,2.75.39.67.43,1.4.12,2.14.23.31.34.67.33,1.06,0,.29-.09.59-.23.88h.06c.54,0,.97.17,1.28.5.62.64.58,1.72.55,2.58,0,.26-.02.51,0,.72.29,2.91-.54,5.7-2.29,7.62-1.56,1.72-3.67,2.62-6.13,2.62h-.42Zm-1.44-12.42c-.81.43-1.22,1.19-1.26,1.91-.04.71.28,1.54,1.22,2,0-.28,0-.62,0-1.05,0-.29,0-.53,0-.62.02-.26,0-.51,0-.78-.02-.46-.04-.98.03-1.45Z"/>
            <path class="cls-10" d="m135.43,86.57c.07,0,.14,0,.21,0h0c2.32,0,7.68,1.55,6.06,4.46.77.71.39,1.76-.34,2.36h1.09c1.76.02,1.26,2.19,1.33,3.33.51,5.19-2.62,9.71-7.92,9.71-.06,0-.11,0-.17,0-.09,0-.17,0-.25,0-11.69,0-11.69-19.87-.03-19.87m-.88,12.59c-.12-.29-.04-2.11-.06-2.44.08-.72-.28-2.54.48-3.01-3.28.42-3.77,4.64-.42,5.44m.88-13.59h0c-3.51,0-6.41,1.66-8.15,4.67-2.13,3.68-2.13,8.83,0,12.51,1.74,3.02,4.65,4.69,8.17,4.69.09,0,.19,0,.28,0h.14c2.6,0,4.85-.96,6.5-2.79,1.84-2.03,2.72-4.95,2.41-8.02,0-.14,0-.38,0-.64.03-.96.07-2.15-.69-2.94-.2-.21-.53-.46-1.02-.58.03-.14.05-.29.05-.43.01-.4-.08-.79-.27-1.13.33-.99.07-1.8-.25-2.34-1.24-2.11-5.15-2.99-6.96-2.99h-.22Zm-1.94,11.79c-.17-.26-.25-.57-.23-.91.01-.25.08-.5.22-.74,0,.09,0,.19.01.28,0,.25.02.5,0,.63v.09s0,.09,0,.09c0,.09,0,.31,0,.57h0Z"/>
          </g>
          <g>
            <path class="cls-8" d="m147.88,106.77c-2.1,0-3.29-.28-3.85-.91-.27-.3-.38-.68-.33-1.09v-16.68c-.04-.36.07-.74.34-1.04.56-.63,1.74-.91,3.81-.91.96,0,1.98.06,2.88.11.71.04,1.35.08,1.83.08s.6-.04.63-.05l.08-.03s.08,0,.08,0c.56,0,.96.16,1.27.47.64.66.61,1.81.58,2.73,0,.23-.01.44,0,.61-.03.28-.01.56,0,.86.04.83.09,1.91-.49,2.54.26.6.23,1.42.2,2.12-.01.31-.03.58,0,.78v.05s0,.05,0,.05c-.02.18,0,.43,0,.7.03.69.06,1.57-.26,2.18.64.64.58,1.79.55,2.6-.01.31-.03.61,0,.81,0,.25,0,.46,0,.69.03.92.06,2.06-.58,2.73-.3.31-.71.47-1.21.47h-.09l-.13-.03s-.15-.05-.61-.05-1.11.04-1.81.08c-.9.05-1.92.11-2.88.11Z"/>
            <path class="cls-10" d="m147.85,86.64c1.71,0,3.6.19,4.7.19.36,0,.64-.02.8-.08.02,0,.03,0,.05,0,1.66,0,1.24,2.26,1.28,3.33-.1.87.37,2.8-.67,3.27.65.55.3,2.33.38,3.07-.08.75.3,2.58-.53,3.04,1.23.4.71,2.42.82,3.36-.04,1.07.38,3.33-1.29,3.33-.01,0-.03,0-.04,0-.15-.05-.42-.07-.78-.07-1.09,0-2.98.19-4.69.19-2.04,0-3.83-.27-3.69-1.44,0-2.83,0-13.91,0-16.74-.13-1.18,1.64-1.44,3.66-1.44m0-1v1-1c-2.26,0-3.51.32-4.19,1.07-.35.39-.52.88-.48,1.42,0,1.54,0,5.35,0,9.02,0,3.2,0,6.28,0,7.63-.05.53.11,1.02.46,1.41.67.76,1.94,1.08,4.23,1.08.98,0,2-.06,2.91-.11.68-.04,1.33-.08,1.78-.08.36,0,.46.02.48.03l.15.05h.13s.01,0,.01,0h.06c.8,0,1.29-.34,1.57-.62.79-.82.75-2.13.72-3.09,0-.21-.01-.41,0-.58v-.07s0-.07,0-.07c-.02-.16,0-.45,0-.73.03-.78.08-1.92-.47-2.71.24-.68.21-1.49.18-2.11,0-.25-.02-.5,0-.63v-.11s0-.11,0-.11c-.02-.14,0-.43,0-.7.03-.65.06-1.41-.13-2.05.51-.77.46-1.86.42-2.65-.01-.27-.03-.56,0-.71v-.07s0-.07,0-.07c0-.17,0-.37,0-.58.03-.96.07-2.27-.72-3.09-.28-.28-.77-.62-1.57-.62h-.07s-.16,0-.16,0l-.15.05s0,0,0,0c-.01,0-.13.02-.46.02-.46,0-1.11-.04-1.8-.08-.9-.05-1.93-.11-2.9-.11h0Z"/>
          </g>
        </g>
        <g>
          <g>
            <path class="cls-4" d="m46.35,65.41c-1.29.61-3.24-9.67-3.68-10.16l-2.8,9.54c-.17,1.09-2.83.47-3.52.62-1.24.91-4.88-15.07-5.3-15.39-.51-1.6,2.59-.86,3.32-1.02,1.24-.56,2.99,9.34,3.43,9.85l2.8-9.23c.11-1.02,2.61-.5,3.25-.62,1.19-.58,3.24,9.39,3.65,9.85.43-.5,2.18-10.4,3.43-9.85.73.18,3.83-.6,3.32,1.02,0,0-4.4,14.76-4.4,14.76-.18,1.08-2.82.47-3.52.62Z"/>
            <path class="cls-4" d="m53.53,49.51c.24,0,.33.15.26.37l-4.4,14.76c-.04.18-.22.26-.42.26-.32-.13-2.97.29-3.04-.26,0,0-3.26-11.18-3.26-11.18l-3.28,11.18c-.06.55-2.72.15-3.04.26-.2,0-.37-.09-.42-.26l-4.4-14.76c-.07-.22.02-.37.26-.37.32.16,2.93-.31,2.95.26,0,0,3.04,10.87,3.04,10.87l3.3-10.87c.04-.54,2.47-.15,2.77-.26.2,0,.31.07.37.26l3.3,10.87,3.04-10.87c.03-.54,2.65-.15,2.95-.26m0-1c-1.03.14-3.66-.53-3.92,1.01,0,0-2.11,7.55-2.11,7.55l-2.3-7.59c-.33-1.48-2.71-.85-3.73-.97-1.91-.41-2.97,7.63-3.63,8.56-.65-1.01-1.5-8.93-3.45-8.56-.77.14-3.14-.37-3.62.5-1.08-.15,4.3,15.54,4.22,15.92.27,1.48,2.98.85,3.99.98,1.97.43,3.03-7.89,3.69-8.88.67,1.01,1.69,9.29,3.68,8.88,1.05-.15,3.73.53,4.01-1.02,0,0,4.39-14.72,4.39-14.72.27-.84-.34-1.68-1.22-1.66h0Z"/>
            <path class="cls-4" d="m56.19,65.41c-1.74.96-.46-15.22-.83-15.57,0-.47.36-.83.83-.83.69.32,8.99-.83,8.66.83-.14.73.49,3.02-.83,2.97,0,0-4.52,0-4.52,0v2.41h4.23c1.31-.06.7,2.25.83,2.96.14,1.56-4.32.57-5.06.83v2.61h4.52c1.31-.06.7,2.25.83,2.96.35,1.66-8,.51-8.66.83Z"/>
            <path class="cls-4" d="m64.02,49.51c.65-.09.21,2.18.33,2.46.28.69-5.15.18-5.35.33v3.41h4.73c.65-.09.21,2.18.33,2.46.26.69-4.85.18-5.06.33v3.61h5.02c.65-.08.21,2.17.33,2.46,0,.2-.13.33-.33.33h-7.83c-.84.08-.08-14.74-.33-15.07,0-.2.13-.33.33-.33h7.83m0-1c-1.19.42-9.43-1.16-9.16,1.33,0,0,0,14.74,0,14.74,0,.75.58,1.33,1.33,1.33,1.19-.42,9.43,1.16,9.16-1.33.62-4.77-2.14-3.22-5.35-3.46v-1.61c3.24-.18,5.63,1.15,5.06-3.46.09-2.15-3.9-1.09-5.06-1.33v-1.41c1.18-.27,5.44.87,5.35-1.33-.06-1.09.43-3.51-1.33-3.47h0Z"/>
            <path class="cls-4" d="m67.52,65.41c-1.74.95-.46-15.22-.83-15.57-.19-1.62,5.29-.53,6.02-.83,4.72-.07,6.13,4.97,3.34,7.5,4.42,2.34,2.39,9.51-3.51,8.9,0,0-5.02,0-5.02,0Zm4.8-3.77c2.71.06,2.69-3.17,0-3.07,0,0-1.52,0-1.52,0v3.07h1.52Zm-.22-6.51c1.96.02,1.93-2.49,0-2.34,0,0-1.3,0-1.3,0v2.34h1.3Z"/>
            <path class="cls-4" d="m72.71,49.51c4.56-.26,5.64,5.58,2.22,7.11,4.78,1.29,3.74,8.86-2.4,8.29-.21-.14-5.61.36-5.35-.33,0,0,0-14.74,0-14.74-.3-.71,5.34-.17,5.52-.33m-2.42,6.12c1.4-.01,3.81.35,3.7-1.74.12-2.02-2.36-1.56-3.7-1.61v3.34m0,6.51c1.68.02,4.61.31,4.47-2.05.15-2.35-2.8-2.04-4.47-2.02v4.07m2.42-13.63c-1.19.38-6.66-1.04-6.52,1.33,0,0,0,14.74,0,14.74-.14,2.33,5.17,1,6.35,1.33,5.18.87,8.94-6.32,4.33-9.5,2.42-3.01.79-7.9-4.15-7.9h0Zm-1.42,4.77c.59,0,1.95-.11,1.7.61.22.82-1.04.77-1.7.74v-1.34h0Zm0,5.79c1.05-.11,2.78.09,2.47,1.02.31.94-1.4,1.16-2.47,1.05v-2.07h0Z"/>
            <path class="cls-4" d="m89.58,65.41c-.79.32-4.11-5.36-4.58-5.74l-1.15,1.44c-.19,3.38,1.15,4.73-3.32,4.31-1.74.94-.46-15.21-.83-15.57,0-.47.36-.83.83-.83.73.19,3.38-.56,3.32.83,0,0,0,5.27,0,5.27l4.2-5.72c.4-.71,3.18-.26,3.81-.38,2.81.06-4.28,6.74-4.31,7.38l5.51,7.84c1.04,1.84-2.76,1.01-3.49,1.18Z"/>
            <path class="cls-4" d="m91.87,49.51c1.18-.08-5.06,6.68-4.93,6.87-.13.23,6.7,8.63,5.52,8.54-.31-.09-3.15.21-3.28-.2,0,0-4.16-5.88-4.16-5.88l-1.67,2.09v3.65c.1.67-2.53.19-2.82.33-.2,0-.33-.13-.33-.33v-14.74c0-.2.13-.33.33-.33.29.17,2.91-.36,2.82.33,0,0,0,6.8,0,6.8l5.1-6.95c.13-.35,3.12-.11,3.41-.18m0-1c-.82.11-3.72-.35-4.18.53-.06.07-3.28,4.48-3.34,4.54-.24-1.15.82-5.18-1.33-5.08-1.11.12-3.87-.55-3.82,1.33,0,0,0,14.74,0,14.74,0,.75.58,1.33,1.33,1.33,4.54.43,3.81-.92,3.82-4.63l.62-.78c.77.68,3.29,5.68,4.6,5.41.87-.15,3.59.46,4.02-.65.97-.92-5.15-8.02-5.42-8.85.36-1.19,7.68-7.44,3.68-7.9h0Z"/>
            <path class="cls-4" d="m95.24,65.41c-1.74.94-.46-15.21-.83-15.57,0-.47.36-.83.83-.83.73.19,3.39-.56,3.32.83,0,0,0,14.74,0,14.74.07,1.37-2.59.67-3.32.83Z"/>
            <path class="cls-4" d="m97.72,49.51c.2,0,.33.13.33.33v14.74c0,.2-.13.33-.33.33-.29-.17-2.91.36-2.82-.33,0,0,0-14.74,0-14.74-.11-.67,2.53-.19,2.82-.33m0-1c-1.11.12-3.87-.55-3.82,1.33,0,0,0,14.74,0,14.74-.05,1.87,2.7,1.23,3.82,1.33.75,0,1.33-.58,1.33-1.33v-14.74c0-.75-.58-1.33-1.33-1.33h0Z"/>
            <path class="cls-4" d="m110.15,65.41c-.81.63-5.01-8.59-5.4-8.89-.32.67.83,9.25-.83,8.89-.73-.19-3.39.56-3.32-.83.38-.43-.92-16.45.83-15.57.67.17,3.42-.42,3.76.47,0,0,4.57,8.42,4.57,8.42v-8.06c-.07-1.37,2.59-.67,3.32-.83,1.74-.93.46,15.21.83,15.57.09,1.44-3.02.63-3.76.83Z"/>
            <path class="cls-4" d="m113.08,49.51c.2,0,.33.13.33.33v14.74c0,.2-.13.33-.33.33-.31-.12-3.21.24-3.32-.22,0,0-5.5-10.14-5.5-10.14-.16.16.39,10.74-.33,10.36-.29-.17-2.92.36-2.82-.33.24-.47-.5-15,.33-15.07.31.13,3.21-.26,3.32.22,0,0,5.5,10.14,5.5,10.14v-10.03c-.1-.66,2.53-.2,2.82-.33m0-1c-1.12.11-3.87-.54-3.82,1.33,0,0,0,6.09,0,6.09l-3.62-6.68c-.52-1.24-3.22-.59-4.2-.74-.75,0-1.33.58-1.33,1.33v14.74c-.05,1.87,2.7,1.23,3.82,1.33,2.43.19.94-6.24,1.33-7.42.76.77,3.37,7.79,4.9,7.42,1.14-.17,4.32.66,4.26-1.33,0,0,0-14.74,0-14.74,0-.75-.58-1.33-1.33-1.33h0Z"/>
            <path class="cls-4" d="m116.22,65.41c-1.3.07-.9-3.08-.61-3.75,0,0,6.07-8.86,6.07-8.86-.73-.3-6.25.79-6.06-.83.15-.72-.49-3.02.83-2.97,0,0,9.04,0,9.04,0,1.31-.07.89,3.07.61,3.75,0,0-6.07,8.86-6.07,8.86.75.32,6.69-.81,6.5.83-.14.72.48,3.02-.83,2.96,0,0-9.48,0-9.48,0Z"/>
            <path class="cls-4" d="m125.49,49.51c.61-.03.35,2.67.2,2.97,0,0-6.6,9.64-6.6,9.64.22.19,7.2-.43,6.95.33-.15.29.34,2.55-.33,2.46,0,0-9.48,0-9.48,0-.62.03-.34-2.66-.2-2.97,0,0,6.6-9.64,6.6-9.64h-6.18c-.65.09-.21-2.18-.33-2.46-.37-.71,9.23-.17,9.37-.33m0-1h-9.04c-1.76-.05-1.27,2.37-1.33,3.46-.11,2.23,4.44,1.05,5.62,1.33-.22.52-6.22,8.57-5.84,9.03.09,1.1-.48,3.62,1.33,3.57,0,0,9.48,0,9.48,0,1.76.05,1.27-2.37,1.33-3.46.13-2.29-4.88-1.02-6.06-1.33.23-.53,6.22-8.56,5.84-9.03-.08-1.1.47-3.62-1.33-3.57h0Z"/>
          </g>
          <g>
            <g>
              <path class="cls-5" d="m46.35,63.41c-1.29.61-3.24-9.67-3.68-10.16l-2.8,9.54c-.17,1.09-2.83.47-3.52.62-1.24.91-4.88-15.07-5.3-15.39-.51-1.6,2.59-.86,3.32-1.02,1.24-.56,2.99,9.34,3.43,9.85l2.8-9.23c.11-1.02,2.61-.5,3.25-.62,1.19-.58,3.24,9.39,3.65,9.85.43-.5,2.18-10.4,3.43-9.85.73.18,3.83-.6,3.32,1.02,0,0-4.4,14.76-4.4,14.76-.18,1.08-2.82.47-3.52.62Z"/>
              <path class="cls-4" d="m53.53,47.51c.24,0,.33.15.26.37l-4.4,14.76c-.04.18-.22.26-.42.26-.32-.13-2.97.29-3.04-.26,0,0-3.26-11.18-3.26-11.18l-3.28,11.18c-.06.55-2.72.15-3.04.26-.2,0-.37-.09-.42-.26l-4.4-14.76c-.07-.22.02-.37.26-.37.32.16,2.93-.31,2.95.26,0,0,3.04,10.87,3.04,10.87l3.3-10.87c.04-.54,2.47-.15,2.77-.26.2,0,.31.07.37.26l3.3,10.87,3.04-10.87c.03-.54,2.65-.15,2.95-.26m0-1c-1.03.14-3.66-.53-3.92,1.01,0,0-2.11,7.55-2.11,7.55l-2.3-7.59c-.33-1.48-2.71-.85-3.73-.97-1.91-.41-2.97,7.63-3.63,8.56-.65-1.01-1.5-8.93-3.45-8.56-.77.14-3.14-.37-3.62.5-1.08-.15,4.3,15.54,4.22,15.92.27,1.48,2.98.85,3.99.98,1.97.43,3.03-7.89,3.69-8.88.67,1.01,1.69,9.29,3.68,8.88,1.05-.15,3.73.53,4.01-1.02,0,0,4.39-14.72,4.39-14.72.27-.84-.34-1.68-1.22-1.66h0Z"/>
            </g>
            <g>
              <path class="cls-5" d="m56.19,63.41c-1.74.96-.46-15.22-.83-15.57,0-.47.36-.83.83-.83.69.32,8.99-.83,8.66.83-.14.73.49,3.02-.83,2.97,0,0-4.52,0-4.52,0v2.41h4.23c1.31-.06.7,2.25.83,2.96.14,1.56-4.32.57-5.06.83v2.61h4.52c1.31-.06.7,2.25.83,2.96.35,1.66-8,.51-8.66.83Z"/>
              <path class="cls-4" d="m64.02,47.51c.65-.09.21,2.18.33,2.46.28.69-5.15.18-5.35.33v3.41h4.73c.65-.09.21,2.18.33,2.46.26.69-4.85.18-5.06.33v3.61h5.02c.65-.08.21,2.17.33,2.46,0,.2-.13.33-.33.33h-7.83c-.84.08-.08-14.74-.33-15.07,0-.2.13-.33.33-.33h7.83m0-1c-1.19.42-9.43-1.16-9.16,1.33,0,0,0,14.74,0,14.74,0,.75.58,1.33,1.33,1.33,1.19-.42,9.43,1.16,9.16-1.33.62-4.77-2.14-3.22-5.35-3.46v-1.61c3.24-.18,5.63,1.15,5.06-3.46.09-2.15-3.9-1.09-5.06-1.33v-1.41c1.18-.27,5.44.87,5.35-1.33-.06-1.09.43-3.51-1.33-3.47h0Z"/>
            </g>
            <g>
              <path class="cls-5" d="m67.52,63.41c-1.74.95-.46-15.22-.83-15.57-.19-1.62,5.29-.53,6.02-.83,4.72-.07,6.13,4.97,3.34,7.5,4.42,2.34,2.39,9.51-3.51,8.9,0,0-5.02,0-5.02,0Zm4.8-3.77c2.71.06,2.69-3.17,0-3.07,0,0-1.52,0-1.52,0v3.07h1.52Zm-.22-6.51c1.96.02,1.93-2.49,0-2.34,0,0-1.3,0-1.3,0v2.34h1.3Z"/>
              <path class="cls-4" d="m72.71,47.51c4.56-.26,5.64,5.58,2.22,7.11,4.78,1.29,3.74,8.86-2.4,8.29-.21-.14-5.61.36-5.35-.33,0,0,0-14.74,0-14.74-.3-.71,5.34-.17,5.52-.33m-2.42,6.12c1.4-.01,3.81.35,3.7-1.74.12-2.02-2.36-1.56-3.7-1.61v3.34m0,6.51c1.68.02,4.61.31,4.47-2.05.15-2.35-2.8-2.04-4.47-2.02v4.07m2.42-13.63c-1.19.38-6.66-1.04-6.52,1.33,0,0,0,14.74,0,14.74-.14,2.33,5.17,1,6.35,1.33,5.18.87,8.94-6.32,4.33-9.5,2.42-3.01.79-7.9-4.15-7.9h0Zm-1.42,4.77c.59,0,1.95-.11,1.7.61.22.82-1.04.77-1.7.74v-1.34h0Zm0,5.79c1.05-.11,2.78.09,2.47,1.02.31.94-1.4,1.16-2.47,1.05v-2.07h0Z"/>
            </g>
            <g>
              <path class="cls-5" d="m89.58,63.41c-.79.32-4.11-5.36-4.58-5.74l-1.15,1.44c-.19,3.38,1.15,4.73-3.32,4.31-1.74.94-.46-15.21-.83-15.57,0-.47.36-.83.83-.83.73.19,3.38-.56,3.32.83,0,0,0,5.27,0,5.27l4.2-5.72c.4-.71,3.18-.26,3.81-.38,2.81.06-4.28,6.74-4.31,7.38l5.51,7.84c1.04,1.84-2.76,1.01-3.49,1.18Z"/>
              <path class="cls-4" d="m91.87,47.51c1.18-.08-5.06,6.68-4.93,6.87-.13.23,6.7,8.63,5.52,8.54-.31-.09-3.15.21-3.28-.2,0,0-4.16-5.88-4.16-5.88l-1.67,2.09v3.65c.1.67-2.53.19-2.82.33-.2,0-.33-.13-.33-.33v-14.74c0-.2.13-.33.33-.33.29.17,2.91-.36,2.82.33,0,0,0,6.8,0,6.8l5.1-6.95c.13-.35,3.12-.11,3.41-.18m0-1c-.82.11-3.72-.35-4.18.53-.06.07-3.28,4.48-3.34,4.54-.24-1.15.82-5.18-1.33-5.08-1.11.12-3.87-.55-3.82,1.33,0,0,0,14.74,0,14.74,0,.75.58,1.33,1.33,1.33,4.54.43,3.81-.92,3.82-4.63l.62-.78c.77.68,3.29,5.68,4.6,5.41.87-.15,3.59.46,4.02-.65.97-.92-5.15-8.02-5.42-8.85.36-1.19,7.68-7.44,3.68-7.9h0Z"/>
            </g>
            <g>
              <path class="cls-5" d="m95.24,63.41c-1.74.94-.46-15.21-.83-15.57,0-.47.36-.83.83-.83.73.19,3.39-.56,3.32.83,0,0,0,14.74,0,14.74.07,1.37-2.59.67-3.32.83Z"/>
              <path class="cls-4" d="m97.72,47.51c.2,0,.33.13.33.33v14.74c0,.2-.13.33-.33.33-.29-.17-2.91.36-2.82-.33,0,0,0-14.74,0-14.74-.11-.67,2.53-.19,2.82-.33m0-1c-1.11.12-3.87-.55-3.82,1.33,0,0,0,14.74,0,14.74-.05,1.87,2.7,1.23,3.82,1.33.75,0,1.33-.58,1.33-1.33v-14.74c0-.75-.58-1.33-1.33-1.33h0Z"/>
            </g>
            <g>
              <path class="cls-5" d="m110.15,63.41c-.81.63-5.01-8.59-5.4-8.89-.32.67.83,9.25-.83,8.89-.73-.19-3.39.56-3.32-.83.38-.43-.92-16.45.83-15.57.67.17,3.42-.42,3.76.47,0,0,4.57,8.42,4.57,8.42v-8.06c-.07-1.37,2.59-.67,3.32-.83,1.74-.93.46,15.21.83,15.57.09,1.44-3.02.63-3.76.83Z"/>
              <path class="cls-4" d="m113.08,47.51c.2,0,.33.13.33.33v14.74c0,.2-.13.33-.33.33-.31-.12-3.21.24-3.32-.22,0,0-5.5-10.14-5.5-10.14-.16.16.39,10.74-.33,10.36-.29-.17-2.92.36-2.82-.33.24-.47-.5-15,.33-15.07.31.13,3.21-.26,3.32.22,0,0,5.5,10.14,5.5,10.14v-10.03c-.1-.66,2.53-.2,2.82-.33m0-1c-1.12.11-3.87-.54-3.82,1.33,0,0,0,6.09,0,6.09l-3.62-6.68c-.52-1.24-3.22-.59-4.2-.74-.75,0-1.33.58-1.33,1.33v14.74c-.05,1.87,2.7,1.23,3.82,1.33,2.43.19.94-6.24,1.33-7.42.76.77,3.37,7.79,4.9,7.42,1.14-.17,4.32.66,4.26-1.33,0,0,0-14.74,0-14.74,0-.75-.58-1.33-1.33-1.33h0Z"/>
            </g>
            <g>
              <path class="cls-5" d="m116.22,63.41c-1.3.07-.9-3.08-.61-3.75,0,0,6.07-8.86,6.07-8.86-.73-.3-6.25.79-6.06-.83.15-.72-.49-3.02.83-2.97,0,0,9.04,0,9.04,0,1.31-.07.89,3.07.61,3.75,0,0-6.07,8.86-6.07,8.86.75.32,6.69-.81,6.5.83-.14.72.48,3.02-.83,2.96,0,0-9.48,0-9.48,0Z"/>
              <path class="cls-4" d="m125.49,47.51c.61-.03.35,2.67.2,2.97,0,0-6.6,9.64-6.6,9.64.22.19,7.2-.43,6.95.33-.15.29.34,2.55-.33,2.46,0,0-9.48,0-9.48,0-.62.03-.34-2.66-.2-2.97,0,0,6.6-9.64,6.6-9.64h-6.18c-.65.09-.21-2.18-.33-2.46-.37-.71,9.23-.17,9.37-.33m0-1h-9.04c-1.76-.05-1.27,2.37-1.33,3.46-.11,2.23,4.44,1.05,5.62,1.33-.22.52-6.22,8.57-5.84,9.03.09,1.1-.48,3.62,1.33,3.57,0,0,9.48,0,9.48,0,1.76.05,1.27-2.37,1.33-3.46.13-2.29-4.88-1.02-6.06-1.33.23-.53,6.22-8.56,5.84-9.03-.08-1.1.47-3.62-1.33-3.57h0Z"/>
            </g>
          </g>
        </g>
        <g>
          <g class="cls-7">
            <path class="cls-8" d="m43.57,105.65c-1.74.96-.46-15.22-.83-15.57,0-.47.36-.83.83-.83.69.32,8.99-.83,8.66.83-.14.73.49,3.02-.83,2.97,0,0-4.52,0-4.52,0v2.41h4.23c1.31-.06.7,2.25.83,2.96.14,1.56-4.32.57-5.06.83v2.61h4.52c1.31-.06.7,2.25.83,2.96.35,1.66-8,.51-8.66.83Z"/>
            <path class="cls-8" d="m51.4,89.75c.65-.09.21,2.18.33,2.46.28.69-5.15.18-5.35.33v3.41h4.73c.65-.09.21,2.18.33,2.46.26.69-4.85.18-5.06.33v3.61h5.02c.65-.08.21,2.17.33,2.46,0,.2-.13.33-.33.33h-7.83c-.84.08-.08-14.74-.33-15.07,0-.2.13-.33.33-.33h7.83m0-1c-1.19.42-9.43-1.16-9.16,1.33,0,0,0,14.74,0,14.74,0,.75.58,1.33,1.33,1.33,1.19-.42,9.43,1.16,9.16-1.33.62-4.77-2.14-3.22-5.35-3.46v-1.61c3.24-.18,5.63,1.15,5.06-3.46.09-2.15-3.9-1.09-5.06-1.33v-1.41c1.18-.27,5.44.87,5.35-1.33-.06-1.09.43-3.51-1.33-3.47h0Z"/>
            <path class="cls-8" d="m63.19,105.65c-.95.23-2.71-4.02-3.19-4.51-.51.5-2.25,4.72-3.21,4.51-.48-.11-3.2.29-3.39-.35-.75-.24,4.27-7.66,4.31-8.03-.08-.43-4.79-7.35-4.09-7.68.19-.64,2.87-.25,3.35-.35.98-.22,2.53,3.66,3.04,4.16.53-.52,2.03-4.35,3.01-4.16.48.1,3.16-.29,3.35.35.72.29-4.04,7.28-4.09,7.68l4.27,7.23c.88,1.81-2.61.97-3.36,1.15Z"/>
            <path class="cls-8" d="m65.68,89.75c1.16-.24-4.14,7.37-3.98,7.53-.13.23,5.33,8.02,4.2,7.88-.32-.09-2.98.23-3.1-.22,0,0-2.79-4.78-2.79-4.78l-2.82,4.78c-.11.44-2.8.13-3.1.22-1.15.18,4.35-7.69,4.2-7.88.13-.2-5.13-7.73-3.98-7.53.34.09,2.94-.23,3.08.22,0,0,2.62,4.42,2.62,4.42l2.62-4.42c.1-.45,2.76-.13,3.06-.22m0-1c-4.08-.37-3.81.53-5.68,3.68-1.87-3.17-1.62-4.04-5.7-3.68-3.75.19,2.64,7.31,2.82,8.52-.17,1.25-6.83,8.68-3.04,8.88,4.3.45,3.96-.84,5.92-4.02,1.96,3.2,1.59,4.46,5.9,4.02,3.8-.17-2.89-7.66-3.04-8.88.19-1.25,6.56-8.32,2.82-8.52h0Z"/>
            <path class="cls-8" d="m74.74,105.94c-15.78-1.21-6.48-24.54,5.74-14.49.96.71-1.47,2.95-2.13,3.08-2.96-2.42-7.87-1.43-7.87,2.99-.14,3.89,4.56,5.68,7.32,3.18.34-.3.86-.28,1.16.08.22.32,1.85,1.74,1.77,2.17-.95,2.09-3.78,2.93-6,2.99Z"/>
            <path class="cls-8" d="m74.74,89.57c2.01.07,5.04.89,5.39,2.68,0,0-1.54,1.65-1.54,1.65-1.16-.02-2.24-1.53-3.85-1.25-6.19-.21-6.21,9.92,0,9.7,1.61.27,2.69-1.24,3.85-1.26.09.27,2.05,1.75,1.54,2.09-11.44,9.5-20.26-12.47-5.39-13.62m0-1c-16.74,1.3-6.83,26.05,6.1,15.32,1.29-1.15-.84-2.63-1.52-3.47-1.46-1.4-2.93,1.34-4.58.94-2.17,0-3.75-1.62-3.75-3.84s1.58-3.86,3.75-3.86c1.66-.41,3.14,2.37,4.61.91,4.64-3.29-1.19-5.99-4.61-5.99h0Z"/>
            <path class="cls-8" d="m91.86,105.65c-1.62.19-.53-5.45-.83-6.18h-4.65v5.35c.07,1.37-2.59.67-3.32.83-1.74.94-.46-15.21-.83-15.57-.07-1.37,2.59-.67,3.32-.83,1.63-.21.52,5.73.83,6.45h4.65c.32-.73-.81-6.65.83-6.45.73.18,3.39-.55,3.32.83,0,0,0,14.74,0,14.74.07,1.37-2.59.67-3.32.83Z"/>
            <path class="cls-8" d="m94.35,89.75c.2,0,.33.13.33.33v14.74c0,.2-.13.33-.33.33-.29-.15-2.92.35-2.82-.33,0,0,0-5.85,0-5.85h-5.65v5.85c.1.67-2.53.19-2.82.33-.2,0-.33-.13-.33-.33v-14.74c-.11-.67,2.53-.19,2.82-.33.69-.41.18,6.32.33,6.45h5.65v-6.12c-.1-.66,2.53-.2,2.82-.33m0-1c-1.12.11-3.87-.54-3.82,1.33,0,0,0,5.12,0,5.12h-3.65c-.34-1.17,1.01-6.6-1.33-6.45-1.11.12-3.87-.55-3.82,1.33,0,0,0,14.74,0,14.74,0,.75.58,1.33,1.33,1.33,5.62.65,3.39-2.42,3.82-6.18h3.65c.33,1.19-.99,6.31,1.33,6.18,1.12-.12,3.87.55,3.82-1.33,0,0,0-14.74,0-14.74,0-.75-.58-1.33-1.33-1.33h0Z"/>
            <path class="cls-8" d="m107.77,105.65c-1.03.12-1.16-1.93-1.48-2.53h-5.09c-.32.59-.46,2.66-1.48,2.53-.73-.18-3.93.62-3.32-1.06,0,0,5.14-14.74,5.14-14.74.07-.93,4.38-.89,4.44,0,0,0,5.15,14.77,5.15,14.77.54,1.64-2.62.87-3.35,1.04Zm-2.71-6.33l-1.31-4.01-1.31,4.01h2.62Z"/>
            <path class="cls-8" d="m105.08,89.75c.18,0,.35.09.42.26-.16.28,5.91,15.35,4.86,15.14-3.03-.01-2.84.57-3.72-2.53h-5.81c-.2.23-.59,2.68-1.12,2.53-.23-.18-3.23.4-2.86-.37,0,0,5.15-14.76,5.15-14.76.1-.55,2.74-.15,3.08-.26m-3.34,10.08h4l-2-6.12-2,6.12m3.34-11.08c-1.04.16-3.61-.53-4.02.91,0,0-5.16,14.79-5.16,14.79-.73,2.22,2.62,1.65,3.8,1.7,1.3.11,1.51-1.65,1.84-2.53h4.36c.34.88.54,2.64,1.85,2.53.82-.13,3.21.39,3.7-.56,1.09.12-5.08-15.52-5.02-15.91-.21-.58-.75-.94-1.36-.94h0Zm-1.96,10.08l.62-1.9.62,1.9h-1.24Z"/>
            <path class="cls-8" d="m121.87,105.65c-.81.63-5.01-8.59-5.4-8.89-.32.67.83,9.25-.83,8.89-.73-.19-3.39.56-3.32-.83.38-.43-.92-16.45.83-15.57.67.17,3.42-.42,3.76.47,0,0,4.57,8.42,4.57,8.42v-8.06c-.07-1.37,2.59-.67,3.32-.83,1.74-.93.46,15.21.83,15.57.09,1.44-3.02.63-3.76.83Z"/>
            <path class="cls-8" d="m124.8,89.75c.2,0,.33.13.33.33v14.74c0,.2-.13.33-.33.33-.31-.12-3.21.24-3.32-.22,0,0-5.5-10.14-5.5-10.14-.16.16.39,10.74-.33,10.36-.29-.17-2.92.36-2.82-.33.24-.47-.5-15,.33-15.07.31.13,3.21-.26,3.32.22,0,0,5.5,10.14,5.5,10.14v-10.03c-.1-.66,2.53-.2,2.82-.33m0-1c-1.12.11-3.87-.54-3.82,1.33,0,0,0,6.09,0,6.09l-3.62-6.68c-.52-1.24-3.22-.59-4.2-.74-.75,0-1.33.58-1.33,1.33v14.74c-.05,1.87,2.7,1.23,3.82,1.33,2.43.19.94-6.24,1.33-7.42.76.77,3.37,7.79,4.9,7.42,1.14-.17,4.32.66,4.26-1.33,0,0,0-14.74,0-14.74,0-.75-.58-1.33-1.33-1.33h0Z"/>
            <path class="cls-8" d="m135.71,105.94c-15.82-1.19-6.56-24.49,5.66-14.54,1,.82-1.36,2.93-2.09,3.12-2.96-2.42-7.87-1.42-7.87,2.99-.48,4.19,6.53,6.14,7.75,2.17-2.95-.23-4.63,1.17-4.18-2.96-.29-1.62,6.78-.53,7.47-.83.47,0,.83.36.83.83.5,4.94-2.47,9.31-7.58,9.21Z"/>
            <path class="cls-8" d="m135.64,89.57c2.02.07,5.23.87,5.37,2.75-.31.15-1.53,2.08-1.96,1.61-2.94-2.75-8.33-.75-8.14,3.59-.61,5.14,8.43,6.8,8.82,1.67-.27-.15-4.41.36-4.25-.33.13-.29-.32-2.55.33-2.46,0,0,6.64,0,6.64,0,.61-.06.23,1.47.33,1.76.4,10.06-15.48,9.09-15.07-.64,0-4.51,3.54-7.94,7.92-7.94m0-1c-5,0-8.92,3.93-8.92,8.94-.43,10.83,17.38,12.25,17.07.64.03-1.03.17-2.79-1.33-2.76,0,0-6.64,0-6.64,0-1.76-.05-1.27,2.37-1.33,3.46-.06,1.9,2.82,1.21,3.94,1.33-5.2,4.99-10.08-6.04-2.76-6.54,1.67-.4,3.15,2.39,4.63.89,4.6-3.26-1.17-6-4.65-5.97h0Z"/>
            <path class="cls-8" d="m145.52,105.65c-1.74.96-.46-15.22-.83-15.57,0-.47.36-.83.83-.83.69.32,8.99-.83,8.66.83-.14.73.49,3.02-.83,2.97,0,0-4.52,0-4.52,0v2.41h4.23c1.31-.06.7,2.25.83,2.96.14,1.56-4.32.57-5.06.83v2.61h4.52c1.31-.06.7,2.25.83,2.96.35,1.66-8,.51-8.66.83Z"/>
            <path class="cls-8" d="m153.35,89.75c.65-.09.21,2.18.33,2.46.28.69-5.15.18-5.35.33v3.41h4.73c.65-.09.21,2.18.33,2.46.26.69-4.85.18-5.06.33v3.61h5.02c.65-.08.21,2.17.33,2.46,0,.2-.13.33-.33.33h-7.83c-.84.08-.08-14.74-.33-15.07,0-.2.13-.33.33-.33h7.83m0-1c-1.19.42-9.43-1.16-9.16,1.33,0,0,0,14.74,0,14.74,0,.75.58,1.33,1.33,1.33,1.19-.42,9.43,1.16,9.16-1.33.62-4.77-2.14-3.22-5.35-3.46v-1.61c3.24-.18,5.63,1.15,5.06-3.46.09-2.15-3.9-1.09-5.06-1.33v-1.41c1.18-.27,5.44.87,5.35-1.33-.06-1.09.43-3.51-1.33-3.47h0Z"/>
          </g>
          <g>
            <g>
              <path class="cls-9" d="m43.57,103.65c-1.74.96-.46-15.22-.83-15.57,0-.47.36-.83.83-.83.69.32,8.99-.83,8.66.83-.14.73.49,3.02-.83,2.97,0,0-4.52,0-4.52,0v2.41h4.23c1.31-.06.7,2.25.83,2.96.14,1.56-4.32.57-5.06.83v2.61h4.52c1.31-.06.7,2.25.83,2.96.35,1.66-8,.51-8.66.83Z"/>
              <path class="cls-8" d="m51.4,87.75c.65-.09.21,2.18.33,2.46.28.69-5.15.18-5.35.33v3.41h4.73c.65-.09.21,2.18.33,2.46.26.69-4.85.18-5.06.33v3.61h5.02c.65-.08.21,2.17.33,2.46,0,.2-.13.33-.33.33h-7.83c-.84.08-.08-14.74-.33-15.07,0-.2.13-.33.33-.33h7.83m0-1c-1.19.42-9.43-1.16-9.16,1.33,0,0,0,14.74,0,14.74,0,.75.58,1.33,1.33,1.33,1.19-.42,9.43,1.16,9.16-1.33.62-4.77-2.14-3.22-5.35-3.46v-1.61c3.24-.18,5.63,1.15,5.06-3.46.09-2.15-3.9-1.09-5.06-1.33v-1.41c1.18-.27,5.44.87,5.35-1.33-.06-1.09.43-3.51-1.33-3.47h0Z"/>
            </g>
            <g>
              <path class="cls-9" d="m63.19,103.65c-.95.23-2.71-4.02-3.19-4.51-.51.5-2.25,4.72-3.21,4.51-.48-.11-3.2.29-3.39-.35-.75-.24,4.27-7.66,4.31-8.03-.08-.43-4.79-7.35-4.09-7.68.19-.64,2.87-.25,3.35-.35.98-.22,2.53,3.66,3.04,4.16.53-.52,2.03-4.35,3.01-4.16.48.1,3.16-.29,3.35.35.72.29-4.04,7.28-4.09,7.68l4.27,7.23c.88,1.81-2.61.97-3.36,1.15Z"/>
              <path class="cls-8" d="m65.68,87.75c1.16-.24-4.14,7.37-3.98,7.53-.13.23,5.33,8.02,4.2,7.88-.32-.09-2.98.23-3.1-.22,0,0-2.79-4.78-2.79-4.78l-2.82,4.78c-.11.44-2.8.13-3.1.22-1.15.18,4.35-7.69,4.2-7.88.13-.2-5.13-7.73-3.98-7.53.34.09,2.94-.23,3.08.22,0,0,2.62,4.42,2.62,4.42l2.62-4.42c.1-.45,2.76-.13,3.06-.22m0-1c-4.08-.37-3.81.53-5.68,3.68-1.87-3.17-1.62-4.04-5.7-3.68-3.75.19,2.64,7.31,2.82,8.52-.17,1.25-6.83,8.68-3.04,8.88,4.3.45,3.96-.84,5.92-4.02,1.96,3.2,1.59,4.46,5.9,4.02,3.8-.17-2.89-7.66-3.04-8.88.19-1.25,6.56-8.32,2.82-8.52h0Z"/>
            </g>
            <g>
              <path class="cls-9" d="m74.74,103.94c-15.78-1.21-6.48-24.54,5.74-14.49.96.71-1.47,2.95-2.13,3.08-2.96-2.42-7.87-1.43-7.87,2.99-.14,3.89,4.56,5.68,7.32,3.18.34-.3.86-.28,1.16.08.22.32,1.85,1.74,1.77,2.17-.95,2.09-3.78,2.93-6,2.99Z"/>
              <path class="cls-8" d="m74.74,87.57c2.01.07,5.04.89,5.39,2.68,0,0-1.54,1.65-1.54,1.65-1.16-.02-2.24-1.53-3.85-1.25-6.19-.21-6.21,9.92,0,9.7,1.61.27,2.69-1.24,3.85-1.26.09.27,2.05,1.75,1.54,2.09-11.44,9.5-20.26-12.47-5.39-13.62m0-1c-16.74,1.3-6.83,26.05,6.1,15.32,1.29-1.15-.84-2.63-1.52-3.47-1.46-1.4-2.93,1.34-4.58.94-2.17,0-3.75-1.62-3.75-3.84s1.58-3.86,3.75-3.86c1.66-.41,3.14,2.37,4.61.91,4.64-3.29-1.19-5.99-4.61-5.99h0Z"/>
            </g>
            <g>
              <path class="cls-9" d="m91.86,103.65c-1.62.19-.53-5.45-.83-6.18h-4.65v5.35c.07,1.37-2.59.67-3.32.83-1.74.94-.46-15.21-.83-15.57-.07-1.37,2.59-.67,3.32-.83,1.63-.21.52,5.73.83,6.45h4.65c.32-.73-.81-6.65.83-6.45.73.18,3.39-.55,3.32.83,0,0,0,14.74,0,14.74.07,1.37-2.59.67-3.32.83Z"/>
              <path class="cls-8" d="m94.35,87.75c.2,0,.33.13.33.33v14.74c0,.2-.13.33-.33.33-.29-.15-2.92.35-2.82-.33,0,0,0-5.85,0-5.85h-5.65v5.85c.1.67-2.53.19-2.82.33-.2,0-.33-.13-.33-.33v-14.74c-.11-.67,2.53-.19,2.82-.33.69-.41.18,6.32.33,6.45h5.65v-6.12c-.1-.66,2.53-.2,2.82-.33m0-1c-1.12.11-3.87-.54-3.82,1.33,0,0,0,5.12,0,5.12h-3.65c-.34-1.17,1.01-6.6-1.33-6.45-1.11.12-3.87-.55-3.82,1.33,0,0,0,14.74,0,14.74,0,.75.58,1.33,1.33,1.33,5.62.65,3.39-2.42,3.82-6.18h3.65c.33,1.19-.99,6.31,1.33,6.18,1.12-.12,3.87.55,3.82-1.33,0,0,0-14.74,0-14.74,0-.75-.58-1.33-1.33-1.33h0Z"/>
            </g>
            <g>
              <path class="cls-9" d="m107.77,103.65c-1.03.12-1.16-1.93-1.48-2.53h-5.09c-.32.59-.46,2.66-1.48,2.53-.73-.18-3.93.62-3.32-1.06,0,0,5.14-14.74,5.14-14.74.07-.93,4.38-.89,4.44,0,0,0,5.15,14.77,5.15,14.77.54,1.64-2.62.87-3.35,1.04Zm-2.71-6.33l-1.31-4.01-1.31,4.01h2.62Z"/>
              <path class="cls-8" d="m105.08,87.75c.18,0,.35.09.42.26-.16.28,5.91,15.35,4.86,15.14-3.03-.01-2.84.57-3.72-2.53h-5.81c-.2.23-.59,2.68-1.12,2.53-.23-.18-3.23.4-2.86-.37,0,0,5.15-14.76,5.15-14.76.1-.55,2.74-.15,3.08-.26m-3.34,10.08h4l-2-6.12-2,6.12m3.34-11.08c-1.04.16-3.61-.53-4.02.91,0,0-5.16,14.79-5.16,14.79-.73,2.22,2.62,1.65,3.8,1.7,1.3.11,1.51-1.65,1.84-2.53h4.36c.34.88.54,2.64,1.85,2.53.82-.13,3.21.39,3.7-.56,1.09.12-5.08-15.52-5.02-15.91-.21-.58-.75-.94-1.36-.94h0Zm-1.96,10.08l.62-1.9.62,1.9h-1.24Z"/>
            </g>
            <g>
              <path class="cls-9" d="m121.87,103.65c-.81.63-5.01-8.59-5.4-8.89-.32.67.83,9.25-.83,8.89-.73-.19-3.39.56-3.32-.83.38-.43-.92-16.45.83-15.57.67.17,3.42-.42,3.76.47,0,0,4.57,8.42,4.57,8.42v-8.06c-.07-1.37,2.59-.67,3.32-.83,1.74-.93.46,15.21.83,15.57.09,1.44-3.02.63-3.76.83Z"/>
              <path class="cls-8" d="m124.8,87.75c.2,0,.33.13.33.33v14.74c0,.2-.13.33-.33.33-.31-.12-3.21.24-3.32-.22,0,0-5.5-10.14-5.5-10.14-.16.16.39,10.74-.33,10.36-.29-.17-2.92.36-2.82-.33.24-.47-.5-15,.33-15.07.31.13,3.21-.26,3.32.22,0,0,5.5,10.14,5.5,10.14v-10.03c-.1-.66,2.53-.2,2.82-.33m0-1c-1.12.11-3.87-.54-3.82,1.33,0,0,0,6.09,0,6.09l-3.62-6.68c-.52-1.24-3.22-.59-4.2-.74-.75,0-1.33.58-1.33,1.33v14.74c-.05,1.87,2.7,1.23,3.82,1.33,2.43.19.94-6.24,1.33-7.42.76.77,3.37,7.79,4.9,7.42,1.14-.17,4.32.66,4.26-1.33,0,0,0-14.74,0-14.74,0-.75-.58-1.33-1.33-1.33h0Z"/>
            </g>
            <g>
              <path class="cls-9" d="m135.71,103.94c-15.82-1.19-6.56-24.49,5.66-14.54,1,.82-1.36,2.93-2.09,3.12-2.96-2.42-7.87-1.42-7.87,2.99-.48,4.19,6.53,6.14,7.75,2.17-2.95-.23-4.63,1.17-4.18-2.96-.29-1.62,6.78-.53,7.47-.83.47,0,.83.36.83.83.5,4.94-2.47,9.31-7.58,9.21Z"/>
              <path class="cls-8" d="m135.64,87.57c2.02.07,5.23.87,5.37,2.75-.31.15-1.53,2.08-1.96,1.61-2.94-2.75-8.33-.75-8.14,3.59-.61,5.14,8.43,6.8,8.82,1.67-.27-.15-4.41.36-4.25-.33.13-.29-.32-2.55.33-2.46,0,0,6.64,0,6.64,0,.61-.06.23,1.47.33,1.76.4,10.06-15.48,9.09-15.07-.64,0-4.51,3.54-7.94,7.92-7.94m0-1c-5,0-8.92,3.93-8.92,8.94-.43,10.83,17.38,12.25,17.07.64.03-1.03.17-2.79-1.33-2.76,0,0-6.64,0-6.64,0-1.76-.05-1.27,2.37-1.33,3.46-.06,1.9,2.82,1.21,3.94,1.33-5.2,4.99-10.08-6.04-2.76-6.54,1.67-.4,3.15,2.39,4.63.89,4.6-3.26-1.17-6-4.65-5.97h0Z"/>
            </g>
            <g>
              <path class="cls-9" d="m145.52,103.65c-1.74.96-.46-15.22-.83-15.57,0-.47.36-.83.83-.83.69.32,8.99-.83,8.66.83-.14.73.49,3.02-.83,2.97,0,0-4.52,0-4.52,0v2.41h4.23c1.31-.06.7,2.25.83,2.96.14,1.56-4.32.57-5.06.83v2.61h4.52c1.31-.06.7,2.25.83,2.96.35,1.66-8,.51-8.66.83Z"/>
              <path class="cls-8" d="m153.35,87.75c.65-.09.21,2.18.33,2.46.28.69-5.15.18-5.35.33v3.41h4.73c.65-.09.21,2.18.33,2.46.26.69-4.85.18-5.06.33v3.61h5.02c.65-.08.21,2.17.33,2.46,0,.2-.13.33-.33.33h-7.83c-.84.08-.08-14.74-.33-15.07,0-.2.13-.33.33-.33h7.83m0-1c-1.19.42-9.43-1.16-9.16,1.33,0,0,0,14.74,0,14.74,0,.75.58,1.33,1.33,1.33,1.19-.42,9.43,1.16,9.16-1.33.62-4.77-2.14-3.22-5.35-3.46v-1.61c3.24-.18,5.63,1.15,5.06-3.46.09-2.15-3.9-1.09-5.06-1.33v-1.41c1.18-.27,5.44.87,5.35-1.33-.06-1.09.43-3.51-1.33-3.47h0Z"/>
            </g>
          </g>
        </g>
      </g>
    </g>
  </g>
</svg>